<!-- Generated by IcoMoon.io -->
<svg version="1.1" xmlns="http://www.w3.org/2000/svg" width="1024" height="1024" viewBox="0 0 1024 1024">
<title></title>
<g id="icomoon-ignore">
</g>
<path fill="#2319dc" d="M183.979 539.733c111.36-23.979 96-157.184 92.843-186.283-5.461-44.8-58.283-123.221-129.877-116.907-90.027 7.936-103.168 138.24-103.168 138.24-12.245 60.16 29.099 188.843 140.203 164.907zM390.699 316.117c61.44 0 111.104-70.827 111.104-158.293 0-87.040-49.493-157.867-110.933-157.867s-111.403 70.443-111.403 157.909 49.92 158.293 111.36 158.293zM655.659 326.613c82.347 11.093 134.912-76.8 145.579-143.36 10.667-66.133-42.667-143.36-100.693-156.587-58.453-13.483-130.56 79.957-137.813 140.8-7.68 74.667 10.667 148.907 92.587 159.445zM981.333 438.784c0-31.829-26.155-127.701-124.16-127.701-97.92 0-111.36 90.453-111.36 154.453 0 61.013 5.035 145.92 127.36 143.36 121.813-2.987 108.501-138.24 108.501-170.24zM857.6 717.653c0 0-127.36-98.56-201.643-204.8-100.693-156.885-243.84-93.013-291.584-13.483-47.787 80.341-122.027 130.645-132.48 144.085-10.667 13.227-153.6 90.453-121.771 231.253 32 140.8 143.36 138.24 143.36 138.24s81.92 8.107 177.493-13.227 177.493 5.12 177.493 5.12 222.165 74.667 283.648-68.693c60.757-143.787-34.56-218.027-34.56-218.027z"></path>
</svg>
