<!-- Generated by IcoMoon.io -->
<svg version="1.1" xmlns="http://www.w3.org/2000/svg" width="1024" height="1024" viewBox="0 0 1024 1024">
<title></title>
<g id="icomoon-ignore">
</g>
<path fill="#3abfe6" d="M237.397 115.328l147.2 159.317-103.851 204.715 219.307-39.296 99.84 240.896 424.107-556.117zM210.261 460.416l40.832-33.579-52.651 16.64-5.376-7.68 21.76-21.12-28.544 11.52c-108.928 42.24-186.283 147.883-186.283 271.403 0 83.243 35.072 158.080 91.008 211.072-24.021-42.24-37.76-91.051-37.76-143.147 0-122.24 77.184-231.040 184.107-273.92l13.44-32.683-32 14.123-9.003-12.16zM396.459 376.363l68.181-120.363 400.981-93.909z"></path>
</svg>
