<svg width="1024" height="1024" xmlns="http://www.w3.org/2000/svg">
 <title/>

 <g>
  <title>background</title>
  <rect fill="none" id="canvas_background" height="402" width="582" y="-1" x="-1"/>
 </g>
 <g>
  <title>Layer 1</title>
  <g id="icomoon-ignore"/>
  <path id="svg_1" d="m1024,512c0,-70.827 -13.355,-136.96 -40.021,-198.827c-26.928,-63.665 -63.829,-118.048 -109.34,-163.868l0.028,0.028c-45.79,-45.499 -100.173,-82.414 -160.492,-108.088l-3.348,-1.266c-61.867,-26.624 -128,-39.979 -198.827,-39.979s-136.96,13.355 -198.827,40.021c-63.665,26.928 -118.048,63.829 -163.868,109.34l0.028,-0.028c-45.45,45.795 -82.324,100.178 -107.961,160.489l-1.266,3.351c-26.88,61.867 -40.107,128 -40.107,198.827s13.227,136.96 40.107,198.827c26.903,63.662 63.776,118.045 109.258,163.872l-0.032,-0.032c45.795,45.45 100.178,82.324 160.489,107.961l3.351,1.266c61.867,26.88 128,40.107 198.827,40.107s136.96,-13.227 198.827,-40.107c63.662,-26.903 118.045,-63.776 163.872,-109.258l-0.032,0.032c45.499,-45.79 82.414,-100.173 108.088,-160.492l1.266,-3.348c26.624,-61.867 39.979,-128 39.979,-198.827l0.001,-0.001zm-64,-133.12c-23.5,40.489 -50.656,75.387 -81.866,106.187l-0.054,0.053c-30.55,30.58 -64.847,57.408 -102.144,79.741l-2.389,1.326c-38.4,22.613 -79.36,39.68 -123.733,52.48c-43.947,11.947 -90.027,18.347 -137.813,18.347s-93.867,-6.4 -137.813,-18.347c-47.027,-13.019 -88.139,-30.941 -125.983,-53.737l2.25,1.257c-39.687,-23.659 -73.984,-50.487 -104.53,-81.063l-0.004,-0.004c-32,-32 -58.88,-67.413 -81.92,-106.24c23.696,-39.926 50.823,-74.385 81.849,-104.89l0.071,-0.07c30.551,-30.914 64.849,-58.017 102.186,-80.602l2.347,-1.318c35.598,-20.959 76.749,-38.329 120.241,-49.977l3.493,-0.796c40.953,-12.188 88.008,-19.201 136.701,-19.201c0.391,0 0.782,0 1.174,0.001l-0.061,0c47.787,0 93.867,5.973 137.813,19.2c46.984,12.444 88.136,29.814 126.091,52.05l-2.357,-1.276c39.684,23.903 73.982,51.006 104.483,81.869l0.05,0.051c32,32 58.88,67.413 81.92,104.96l-0.002,-0.001zm-329.813,-0.853c0,-32.853 -11.52,-60.587 -34.56,-83.627c-20.727,-21.336 -49.69,-34.576 -81.745,-34.576c-0.662,0 -1.322,0.006 -1.981,0.017l0.099,-0.001c-32.853,0 -60.587,11.52 -83.627,34.56s-34.56,50.773 -34.56,83.627s11.52,60.587 34.56,83.627s50.773,34.56 83.627,34.56s60.587,-11.52 83.627,-34.56c21.336,-20.727 34.576,-49.69 34.576,-81.745c0,-0.662 -0.006,-1.322 -0.017,-1.981l0.001,0.099z" fill="#825794"/>
  <text stroke="null" transform="matrix(1.2771662382446323,0,0,1.2771662382446323,-54.17747389326236,-239.42264012789144) " font-weight="bold" xml:space="preserve" text-anchor="start" font-family="Helvetica, Arial, sans-serif" font-size="200" id="svg_3" y="862.775233" x="172.691652" stroke-opacity="null" stroke-width="0" fill="#ffffff">国内IP</text>
 </g>
</svg>